<?xml version="1.0" standalone="no"?>
<!DOCTYPE svg PUBLIC "-//W3C//DTD SVG 20010904//EN"
 "http://www.w3.org/TR/2001/REC-SVG-20010904/DTD/svg10.dtd">
<svg version="1.0" xmlns="http://www.w3.org/2000/svg"
 width="316.000000pt" height="316.000000pt" viewBox="0 0 316.000000 316.000000"
 preserveAspectRatio="xMidYMid meet">
<metadata>
Created by potrace 1.14, written by Peter Selinger 2001-2017
</metadata>
<g transform="translate(0.000000,316.000000) scale(0.100000,-0.100000)"
fill="#000000" stroke="none">
<path d="M0 1580 l0 -1580 1580 0 1580 0 0 1580 0 1580 -1580 0 -1580 0 0
-1580z m2040 654 c0 -9 -143 -315 -317 -680 l-317 -664 -133 0 c-92 0 -133 3
-133 11 0 7 113 248 252 538 138 289 282 590 319 669 l68 142 130 0 c113 0
131 -2 131 -16z m-882 -336 c2 -100 -1 -138 -10 -145 -7 -5 -95 -43 -195 -83
-100 -41 -181 -75 -179 -77 2 -2 88 -39 192 -82 l189 -78 3 -141 c2 -119 0
-142 -12 -142 -21 0 -730 311 -738 324 -4 6 -8 62 -8 124 l0 112 53 25 c132
64 683 303 692 301 6 -2 11 -58 13 -138z m1272 -20 c190 -83 351 -156 358
-161 9 -7 12 -42 10 -130 l-3 -121 -363 -158 c-200 -88 -370 -157 -378 -154
-11 4 -14 33 -14 139 l0 135 153 62 c83 35 172 72 197 82 l45 19 -185 77
c-102 42 -191 81 -198 85 -13 9 -18 268 -5 281 9 8 -21 21 383 -156z"/>
</g>
</svg>
